# xmcd CD database file
#
# Track frame offsets:
#	150
#	31134
#	62925
#	84514
#	115562
#	170337
#	195895
#	220248
#	223187
#	232659
#	245915
#
# Disc length: 4367 seconds
#
# Revision: 0
# Processed by: cddbd v1.5.2PL0 Copyright (c) Steve Scherf et al.
# Submitted via: CDex 1.81
#
DISCID=8f110d0b
DTITLE=Antoine Pierre Urbex - Urbex
DYEAR=2016
DGENRE=Jazz
TTITLE0=Coffin for a Sequoia
TTITLE1=Litany for an Orange Tree
TTITLE2=Who Planted This Tree?
TTITLE3=Les Douze Marionettes
TTITLE4=Urbex
TTITLE5=Metropolitan Adventure
TTITLE6=Walking on a Vibrant Soil
TTITLE7=Wandering #1
TTITLE8=Metropolitan Adventure (Reprise)
TTITLE9=Moon's Melancholia
TTITLE10=Ode to My Moon
EXTD=YEAR: 2016
EXTT0=
EXTT1=
EXTT2=
EXTT3=
EXTT4=
EXTT5=
EXTT6=
EXTT7=
EXTT8=
EXTT9=
EXTT10=
PLAYORDER=
